<svg width="275px" height="278px" viewBox="0 0 275 278" version="1.1" xmlns="http://www.w3.org/2000/svg" xmlns:xlink="http://www.w3.org/1999/xlink">
    <title>Stars</title>
    <g id="Designs" stroke="none" stroke-width="1" fill="none" fill-rule="evenodd">
        <g id="Artboard-Copy-4" transform="translate(-56.000000, -171.000000)">
            <g id="Logo" transform="translate(-35.000000, 84.000000)">
                <g id="Stars" transform="translate(228.500000, 225.644654) rotate(-360.000000) translate(-228.500000, -225.644654) translate(91.000000, 87.144654)">
                    <path d="M9.375,4.0240424 C9.6875,6.8398882 10.625,9.0299905 12.1875,10.5943493 C13.75,12.1587081 15.9375,13.0973233 18.75,13.4101951 C15.9375,13.7230668 13.75,14.6616821 12.1875,16.2260409 C10.625,17.7903997 9.6875,19.980502 9.375,22.7963478 C9.0625,19.980502 8.125,17.7903997 6.5625,16.2260409 C5,14.6616821 2.8125,13.7230668 0,13.4101951 C2.8125,13.0973233 5,12.1587081 6.5625,10.5943493 C8.125,9.0299905 9.0625,6.8398882 9.375,4.0240424 Z" id="Path-2" fill="#F400FF" opacity="0.5"></path>
                    <path d="M68.7502625,31.2970015 C69.535979,34.7172104 70.9850325,37.4742575 73.0837365,39.5754581 C75.1833781,41.6775975 77.9386315,43.1287429 81.3560203,43.9153489 C77.9382029,44.7018654 75.1832148,46.1529486 73.0837365,48.2549245 C70.9848692,50.3562886 69.5357536,53.1136013 68.7499209,56.5341795 C67.9642464,53.1136013 66.5151308,50.3562886 64.4162635,48.2549245 C62.3166219,46.1527851 59.5613685,44.7016397 56.1439797,43.9150337 C59.5617971,43.1285172 62.3167852,41.677434 64.4162635,39.5754581 C66.5152941,37.4739305 67.9644719,34.7163523 68.7502625,31.2970015 Z" id="Path-2-Copy" stroke="#FFFFFF" fill="#FFFFFF"></path>
                    <path d="M201.5625,0.113145446 C201.822917,2.45968362 202.604167,4.28476886 203.90625,5.58840118 C205.208333,6.8920335 207.03125,7.67421289 209.375,7.93493935 C207.03125,8.19566581 205.208333,8.9778452 203.90625,10.2814775 C202.604167,11.5851098 201.822917,13.4101951 201.5625,15.7567333 C201.302083,13.4101951 200.520833,11.5851098 199.21875,10.2814775 C197.916667,8.9778452 196.09375,8.19566581 193.75,7.93493935 C196.09375,7.67421289 197.916667,6.8920335 199.21875,5.58840118 C200.520833,4.28476886 201.302083,2.45968362 201.5625,0.113145446 Z" id="Path-2-Copy-2" fill="#FFF7B2" opacity="0.5"></path>
                    <path d="M232.03125,59.5587791 C232.161458,60.7320482 232.552083,61.6445908 233.203125,62.296407 C233.854167,62.9482231 234.765625,63.3393128 235.9375,63.4696761 C234.765625,63.6000393 233.854167,63.991129 233.203125,64.6429451 C232.552083,65.2947613 232.161458,66.2073039 232.03125,67.380573 C231.901042,66.2073039 231.510417,65.2947613 230.859375,64.6429451 C230.208333,63.991129 229.296875,63.6000393 228.125,63.4696761 C229.296875,63.3393128 230.208333,62.9482231 230.859375,62.296407 C231.510417,61.6445908 231.901042,60.7320482 232.03125,59.5587791 Z" id="Path-2-Copy-3" fill="#F400FF" opacity="0.5"></path>
                    <path d="M94.53125,20.4498096 C94.6614583,21.6230787 95.0520833,22.5356213 95.703125,23.1874375 C96.3541667,23.8392536 97.265625,24.2303433 98.4375,24.3607065 C97.265625,24.4910698 96.3541667,24.8821595 95.703125,25.5339756 C95.0520833,26.1857918 94.6614583,27.0983344 94.53125,28.2716035 C94.4010417,27.0983344 94.0104167,26.1857918 93.359375,25.5339756 C92.7083333,24.8821595 91.796875,24.4910698 90.625,24.3607065 C91.796875,24.2303433 92.7083333,23.8392536 93.359375,23.1874375 C94.0104167,22.5356213 94.4010417,21.6230787 94.53125,20.4498096 Z" id="Path-2-Copy-11" fill="#009CFF" opacity="0.5"></path>
                    <path d="M18.75,260.578882 C19.0104167,262.925421 19.7916667,264.750506 21.09375,266.054138 C22.3958333,267.35777 24.21875,268.13995 26.5625,268.400676 C24.21875,268.661403 22.3958333,269.443582 21.09375,270.747214 C19.7916667,272.050847 19.0104167,273.875932 18.75,276.22247 C18.4895833,273.875932 17.7083333,272.050847 16.40625,270.747214 C15.1041667,269.443582 13.28125,268.661403 10.9375,268.400676 C13.28125,268.13995 15.1041667,267.35777 16.40625,266.054138 C17.7083333,264.750506 18.4895833,262.925421 18.75,260.578882 Z" id="Path-2-Copy-4" fill="#FFF7B2" opacity="0.5"></path>
                    <path d="M8.59375,198.004531 C8.72395833,199.1778 9.11458333,200.090343 9.765625,200.742159 C10.4166667,201.393975 11.328125,201.785065 12.5,201.915428 C11.328125,202.045791 10.4166667,202.436881 9.765625,203.088697 C9.11458333,203.740513 8.72395833,204.653056 8.59375,205.826325 C8.46354167,204.653056 8.07291667,203.740513 7.421875,203.088697 C6.77083333,202.436881 5.859375,202.045791 4.6875,201.915428 C5.859375,201.785065 6.77083333,201.393975 7.421875,200.742159 C8.07291667,200.090343 8.46354167,199.1778 8.59375,198.004531 Z" id="Path-2-Copy-5" fill="#F400FF" opacity="0.5"></path>
                    <path d="M24.21875,133.865821 C24.3489583,135.03909 24.7395833,135.951633 25.390625,136.603449 C26.0416667,137.255265 26.953125,137.646355 28.125,137.776718 C26.953125,137.907081 26.0416667,138.298171 25.390625,138.949987 C24.7395833,139.601803 24.3489583,140.514346 24.21875,141.687615 C24.0885417,140.514346 23.6979167,139.601803 23.046875,138.949987 C22.3958333,138.298171 21.484375,137.907081 20.3125,137.776718 C21.484375,137.646355 22.3958333,137.255265 23.046875,136.603449 C23.6979167,135.951633 24.0885417,135.03909 24.21875,133.865821 Z" id="Path-2-Copy-10" fill="#00ECFF" opacity="0.5"></path>
                    <path d="M80.4689297,243.035598 C81.0865321,245.39795 82.1441676,247.320233 83.6306115,248.808445 C85.1179101,250.297513 87.0392263,251.356778 89.3993891,251.975108 C87.0385878,252.593393 85.117663,253.652553 83.6306115,255.141373 C82.1439205,256.629833 81.0861805,258.552507 80.4687243,260.914809 C79.8511437,258.552187 78.793456,256.629709 77.3068885,255.141373 C75.8195899,253.652305 73.8982737,252.593041 71.5381109,251.97471 C73.8989122,251.356426 75.819837,250.297266 77.3068885,248.808445 C78.7935795,247.319985 79.8513195,245.397311 80.4689297,243.035598 Z" id="Path-2-Copy-9" stroke="#FFFFFF" fill="#FFFFFF"></path>
                    <path d="M239.84375,260.578882 C239.973958,261.752151 240.364583,262.664694 241.015625,263.31651 C241.666667,263.968326 242.578125,264.359416 243.75,264.489779 C242.578125,264.620143 241.666667,265.011232 241.015625,265.663048 C240.364583,266.314865 239.973958,267.227407 239.84375,268.400676 C239.713542,267.227407 239.322917,266.314865 238.671875,265.663048 C238.020833,265.011232 237.109375,264.620143 235.9375,264.489779 C237.109375,264.359416 238.020833,263.968326 238.671875,263.31651 C239.322917,262.664694 239.713542,261.752151 239.84375,260.578882 Z" id="Path-2-Copy-6" fill="#F400FF" opacity="0.5"></path>
                    <path d="M267.1875,142.469794 C267.447917,144.816333 268.229167,146.641418 269.53125,147.94505 C270.833333,149.248683 272.65625,150.030862 275,150.291588 C272.65625,150.552315 270.833333,151.334494 269.53125,152.638127 C268.229167,153.941759 267.447917,155.766844 267.1875,158.113382 C266.927083,155.766844 266.145833,153.941759 264.84375,152.638127 C263.541667,151.334494 261.71875,150.552315 259.375,150.291588 C261.71875,150.030862 263.541667,149.248683 264.84375,147.94505 C266.145833,146.641418 266.927083,144.816333 267.1875,142.469794 Z" id="Path-2-Copy-7" fill="#FFF7B2" opacity="0.5"></path>
                    <path d="M34.375,116.657875 C34.6354167,119.004413 35.4166667,120.829498 36.71875,122.13313 C38.0208333,123.436763 39.84375,124.218942 42.1875,124.479668 C39.84375,124.740395 38.0208333,125.522574 36.71875,126.826207 C35.4166667,128.129839 34.6354167,129.954924 34.375,132.301462 C34.1145833,129.954924 33.3333333,128.129839 32.03125,126.826207 C30.7291667,125.522574 28.90625,124.740395 26.5625,124.479668 C28.90625,124.218942 30.7291667,123.436763 32.03125,122.13313 C33.3333333,120.829498 34.1145833,119.004413 34.375,116.657875 Z" id="Path-2-Copy-8" fill="#FFF7B2" opacity="0.5"></path>
                </g>
            </g>
        </g>
    </g>
</svg>